<svg width="20" height="20" viewBox="0 0 20 20" fill="none" xmlns="http://www.w3.org/2000/svg">
<g clip-path="url(#clip0_9_975)">
<path d="M8.55664 17.5C8.70293 17.7533 8.91332 17.9637 9.16668 18.11C9.42003 18.2563 9.70743 18.3333 9.99997 18.3333C10.2925 18.3333 10.5799 18.2563 10.8333 18.11C11.0866 17.9637 11.297 17.7533 11.4433 17.5" stroke="white" stroke-opacity="0.8" stroke-width="1.66667" stroke-linecap="round" stroke-linejoin="round"/>
<path d="M14.1667 14.1666H3.33333C3.17183 14.1667 3.01379 14.1198 2.87844 14.0317C2.74309 13.9436 2.63625 13.8181 2.57092 13.6704C2.50559 13.5227 2.48459 13.3592 2.51046 13.1998C2.53633 13.0404 2.60797 12.8919 2.71666 12.7725C3.82499 11.63 4.99999 10.4158 4.99999 6.66663C4.99987 6.1748 5.07232 5.68565 5.21499 5.21497" stroke="white" stroke-opacity="0.8" stroke-width="1.66667" stroke-linecap="round" stroke-linejoin="round"/>
<path d="M1.66669 1.66663L18.3334 18.3333" stroke="white" stroke-opacity="0.8" stroke-width="1.66667" stroke-linecap="round" stroke-linejoin="round"/>
<path d="M7.22339 2.50837C7.97629 2.0056 8.85158 1.71669 9.75583 1.67247C10.6601 1.62825 11.5594 1.83038 12.3578 2.25728C13.1561 2.68418 13.8236 3.31984 14.289 4.09642C14.7543 4.873 15.0001 5.76136 15.0001 6.6667C15.0001 8.90587 15.6417 10.5442 16.4226 11.7084" stroke="white" stroke-opacity="0.8" stroke-width="1.66667" stroke-linecap="round" stroke-linejoin="round"/>
</g>
<defs>
<clipPath id="clip0_9_975">
<rect width="20" height="20" fill="white"/>
</clipPath>
</defs>
</svg>
